<?xml version="1.0" standalone="no"?>
<!DOCTYPE svg PUBLIC "-//W3C//DTD SVG 20010904//EN"
 "http://www.w3.org/TR/2001/REC-SVG-20010904/DTD/svg10.dtd">
<svg version="1.0" xmlns="http://www.w3.org/2000/svg"
 width="700.000000pt" height="700.000000pt" viewBox="0 0 700.000000 700.000000"
 preserveAspectRatio="xMidYMid meet">
<metadata>
Created by potrace 1.14, written by Peter Selinger 2001-2017
</metadata>
<g transform="translate(0.000000,700.000000) scale(0.100000,-0.100000)"
fill="#000000" stroke="none">
<path d="M4553 5985 c-186 -95 -217 -120 -211 -172 4 -34 4 -35 -81 -77 l-86
-43 -30 18 c-16 11 -38 19 -48 19 -10 0 -242 -113 -515 -252 -273 -139 -527
-267 -565 -286 -72 -36 -107 -71 -107 -106 0 -17 -17 -30 -81 -61 -45 -22 -85
-41 -89 -43 -4 -2 -15 26 -25 62 -21 76 -47 106 -102 113 -31 4 -43 0 -65 -20
-40 -37 -44 -70 -20 -146 32 -105 34 -111 25 -111 -5 0 -51 -22 -103 -50 -69
-36 -97 -47 -106 -39 -32 27 -78 17 -189 -41 -60 -32 -171 -89 -245 -128 -74
-38 -227 -118 -340 -177 -113 -58 -211 -112 -218 -119 -7 -7 -15 -29 -19 -49
-6 -36 -2 -47 59 -187 11 -25 24 -54 29 -65 79 -183 96 -205 154 -205 16 0 52
9 80 20 27 11 214 79 415 151 201 72 380 138 399 147 18 8 42 29 52 46 15 25
34 35 121 63 57 18 103 33 104 33 1 0 11 -33 23 -72 12 -40 26 -83 31 -95 7
-17 3 -33 -16 -67 -79 -142 38 -310 199 -285 112 18 183 128 155 239 -13 51
-69 116 -113 130 -19 6 -35 18 -35 26 0 8 -4 22 -9 32 -18 36 -50 157 -43 163
4 4 40 21 81 39 73 31 74 32 111 15 44 -20 42 -20 265 60 248 89 403 144 480
172 419 148 561 200 583 214 20 13 35 39 37 63 0 12 15 20 118 61 l87 36 22
-21 c13 -11 35 -20 54 -20 40 0 359 113 385 136 37 33 34 76 -9 176 -332 771
-340 788 -404 788 -15 0 -103 -38 -195 -85z"/>
<path d="M1110 4003 c-25 -7 -63 -22 -85 -32 -22 -10 -57 -25 -79 -32 -99 -35
-127 -128 -55 -181 40 -30 74 -24 207 32 98 42 126 58 137 81 20 37 19 58 -4
95 -26 42 -64 54 -121 37z"/>
<path d="M2829 3592 c-24 -2 -45 -12 -62 -30 -14 -15 -89 -128 -167 -252 -79
-124 -157 -247 -175 -275 -65 -100 -899 -1411 -932 -1464 -41 -68 -42 -101 -4
-143 23 -26 36 -32 65 -31 20 1 46 7 57 15 11 7 213 317 449 688 236 371 435
683 442 693 7 10 90 139 183 287 94 148 172 270 175 270 3 0 5 -498 4 -1108 0
-648 4 -1119 9 -1135 17 -51 77 -75 128 -51 57 28 54 -47 59 1158 l5 1110 64
-109 c36 -61 96 -161 133 -223 37 -63 68 -116 68 -119 0 -3 10 -19 23 -36 12
-17 31 -48 42 -68 11 -21 108 -184 215 -363 107 -180 203 -341 214 -359 18
-31 252 -426 305 -515 73 -122 112 -152 169 -131 58 22 81 84 52 139 -14 27
-289 491 -405 685 -57 94 -436 730 -531 892 -11 17 -36 60 -57 95 -20 34 -49
84 -65 109 -15 25 -54 92 -87 147 -43 73 -68 105 -89 114 -27 11 -201 17 -287
10z"/>
</g>
</svg>
